<svg width="230" height="230" viewBox="0 0 240 240" fill="none" xmlns="http://www.w3.org/2000/svg">
<path d="M60.4693 44.4218L61.4378 43.965L64.6396 50.7639L63.671 51.2207L60.4693 44.4218ZM66.7382 49.7742L62.8019 47.6112L63.6894 42.9031L64.8109 42.3741L63.9289 47.0277L67.9191 49.2172L66.7382 49.7742Z" fill="#7FA0C6"/>
<path d="M69.2193 48.8628C68.7403 49.0647 68.2788 49.1301 67.8347 49.059C67.3882 48.9821 66.9809 48.78 66.6128 48.4527C66.2504 48.1229 65.9518 47.6779 65.7169 47.1177C65.482 46.5574 65.3738 46.0322 65.3923 45.5418C65.4166 45.0491 65.5587 44.6188 65.8187 44.2509C66.0763 43.8773 66.4446 43.5896 66.9236 43.3877C67.4083 43.1834 67.871 43.1209 68.3117 43.2002C68.7558 43.2712 69.159 43.4717 69.5214 43.8015C69.8895 44.1288 70.191 44.5726 70.4259 45.1328C70.6608 45.693 70.7662 46.2195 70.7419 46.7123C70.7234 47.2026 70.5853 47.6346 70.3277 48.0082C70.0735 48.3736 69.704 48.6585 69.2193 48.8628ZM68.8451 47.9705C69.2895 47.7832 69.5679 47.4755 69.6805 47.0475C69.793 46.6195 69.727 46.1138 69.4824 45.5305C69.2378 44.9472 68.9236 44.5461 68.5399 44.3273C68.1561 44.1085 67.7421 44.0927 67.2977 44.28C66.8533 44.4673 66.5749 44.7749 66.4624 45.203C66.3498 45.631 66.4158 46.1366 66.6604 46.72C66.905 47.3033 67.2192 47.7043 67.6029 47.9232C67.9867 48.142 68.4008 48.1578 68.8451 47.9705Z" fill="#7FA0C6"/>
<path d="M71.2313 47.8559L69.2567 42.5768L72.8424 41.2233L73.1814 42.1295L70.5624 43.1181L72.1981 47.491L71.2313 47.8559Z" fill="#7FA0C6"/>
<path d="M74.1142 48.2553L73.372 45.9778L73.7109 45.8657C73.7772 45.7053 73.8227 45.5418 73.8475 45.3753C73.8762 45.2009 73.8775 45.0026 73.8512 44.7805C73.8289 44.5504 73.7831 44.2786 73.7139 43.9651C73.6427 43.6457 73.5443 43.2627 73.4185 42.8161C73.2908 42.3637 73.1349 41.8249 72.951 41.1997L76.5632 40.0055L78.0099 44.4444L78.6699 44.2262L79.4121 46.5038L78.4846 46.8104L78.0421 45.4529L74.5993 46.5911L75.0418 47.9486L74.1142 48.2553ZM74.799 45.506L77.0288 44.7688L75.8819 41.2498L74.1605 41.8189C74.3153 42.3746 74.4419 42.8439 74.5404 43.2269C74.6388 43.6099 74.7129 43.9382 74.7626 44.212C74.8123 44.4858 74.8405 44.7238 74.8471 44.9261C74.8538 45.1284 74.8377 45.3217 74.799 45.506Z" fill="#7FA0C6"/>
<path d="M80.4026 41.1165L80.6477 41.9942L79.0923 42.7111C78.8512 42.8255 78.6859 42.967 78.5965 43.1358C78.5131 43.3028 78.5017 43.4949 78.5623 43.7121C78.6196 43.9172 78.7412 44.0616 78.9271 44.1453C79.1191 44.2273 79.3355 44.234 79.5764 44.1653C79.8414 44.0898 80.0646 43.9577 80.2461 43.7692C80.4335 43.579 80.564 43.3595 80.6376 43.1106C80.7094 42.8557 80.7091 42.5985 80.6367 42.3392L80.2653 41.0091C80.1676 40.6593 79.9856 40.4149 79.7192 40.276C79.4529 40.137 79.136 40.1199 78.7686 40.2247C78.5096 40.2985 78.2896 40.4068 78.1084 40.5497C77.9272 40.6925 77.7931 40.8642 77.7061 41.0649C77.6251 41.2638 77.5933 41.4877 77.6108 41.7367L76.6623 42.0072C76.5762 41.5824 76.5934 41.19 76.7139 40.83C76.8405 40.4683 77.0587 40.1554 77.3686 39.8912C77.6784 39.6271 78.0682 39.428 78.538 39.2941C79.2125 39.1017 79.7815 39.1251 80.2449 39.3642C80.7143 39.6015 81.0374 40.0369 81.2143 40.6702L82.2173 44.2621L81.2507 44.5378L81.1117 44.0401L80.8407 44.1174C80.7534 44.3637 80.6075 44.5746 80.4029 44.7502C80.2044 44.924 79.9365 45.059 79.5992 45.1552C79.268 45.2496 78.9612 45.2687 78.6789 45.2124C78.401 45.1484 78.1599 45.0185 77.9557 44.8228C77.7575 44.6253 77.6146 44.3698 77.527 44.0561C77.4007 43.6037 77.4417 43.1916 77.6499 42.8196C77.8564 42.4416 78.2159 42.134 78.7284 41.8967L80.4026 41.1165Z" fill="#7FA0C6"/>
<path d="M80.6979 41.7359L80.4839 40.8212L85.653 39.5761L85.867 40.4908L80.6979 41.7359Z" fill="#7FA0C6"/>
<path d="M85.5612 43.4564L84.5112 37.9187L85.5249 37.7184L85.9677 40.0534L88.3085 39.5908L87.8657 37.2558L88.8794 37.0555L89.9294 42.5931L88.9157 42.7934L88.4904 40.5507L86.1497 41.0133L86.5749 43.256L85.5612 43.4564Z" fill="#7FA0C6"/>
<path d="M89.2849 42.6978L88.4691 37.1209L89.4809 36.9638L89.9704 40.31L90.1603 41.868L90.2717 41.8507L91.3189 36.6784L93.0547 36.4089L93.8705 41.9859L92.8587 42.143L92.3692 38.7968L92.1793 37.2388L92.0679 37.2561L91.0207 42.4283L89.2849 42.6978Z" fill="#7FA0C6"/>
<path d="M95.7018 41.95C94.8863 42.0395 94.228 41.8126 93.7269 41.2691C93.2252 40.7194 92.9198 39.8993 92.8109 38.8088C92.6728 37.4254 92.7846 36.3705 93.1463 35.6441C93.5136 34.9107 94.1464 34.4727 95.0447 34.3299L95.7973 34.2095C95.9766 34.1772 96.0942 34.1265 96.1502 34.0573C96.2119 33.9812 96.238 33.865 96.2287 33.7085L97.2465 33.5967C97.2726 33.9844 97.2431 34.2869 97.1578 34.5042C97.0781 34.7146 96.9365 34.8719 96.7329 34.9761C96.5355 35.0797 96.2666 35.1596 95.9261 35.2159L95.1464 35.3488C94.6696 35.4264 94.3097 35.636 94.0669 35.9776C93.8304 36.3186 93.7077 36.792 93.699 37.3977L93.8204 37.3844C93.9555 37.0987 94.1531 36.8722 94.4134 36.705C94.6736 36.5379 94.9811 36.4348 95.3359 36.3958C95.809 36.3439 96.2314 36.414 96.603 36.6063C96.9803 36.7917 97.2859 37.0794 97.52 37.4695C97.754 37.8596 97.8988 38.3319 97.9541 38.8865C98.0101 39.4474 97.9535 39.9513 97.7841 40.3983C97.6204 40.8384 97.3602 41.1945 97.0035 41.4668C96.6524 41.7322 96.2185 41.8932 95.7018 41.95ZM95.643 40.9831C96.1037 40.9325 96.4485 40.7308 96.6776 40.3781C96.9067 40.0253 96.993 39.5654 96.9363 38.9983C96.8797 38.4312 96.7045 38 96.4107 37.7047C96.1168 37.4094 95.7396 37.287 95.2789 37.3376C94.8121 37.3889 94.4641 37.5909 94.235 37.9437C94.0121 38.2957 93.929 38.7553 93.9856 39.3224C94.0422 39.8895 94.2144 40.321 94.5019 40.617C94.7958 40.9123 95.1761 41.0344 95.643 40.9831Z" fill="#7FA0C6"/>
<path d="M96.5651 36.0167L97.671 35.9407L99.3583 40.0523L100.014 40.0072L99.7787 40.9743L98.654 41.0517L96.5651 36.0167ZM101.86 35.6527L100.162 42.2379C100.06 42.6278 99.8893 42.9377 99.6517 43.1675C99.4141 43.3972 99.1297 43.5235 98.7986 43.5462C98.3238 43.5789 97.9413 43.4734 97.6512 43.2297C97.361 42.986 97.1828 42.6153 97.1163 42.1178L98.0535 42.0533C98.1404 42.2545 98.2303 42.399 98.3232 42.4867C98.4224 42.5741 98.55 42.6124 98.7062 42.6016C98.8437 42.5922 98.9505 42.5409 99.0266 42.4478C99.109 42.3542 99.1788 42.2051 99.2359 42.0003L100.839 35.7229L101.86 35.6527Z" fill="#7FA0C6"/>
<path d="M100.631 42.7782L100.591 40.3831L100.948 40.373C101.058 40.2384 101.15 40.0949 101.223 39.9425C101.301 39.7836 101.361 39.594 101.401 39.3736C101.448 39.1468 101.484 38.8733 101.51 38.5531C101.536 38.2266 101.554 37.8314 101.565 37.3675C101.576 36.8973 101.586 36.3364 101.594 35.6846L105.397 35.5779L105.474 40.246L106.169 40.2265L106.208 42.6216L105.232 42.649L105.208 41.2213L101.584 41.3231L101.607 42.7508L100.631 42.7782ZM102.093 40.3409L104.441 40.275L104.38 36.5743L102.568 36.6252C102.552 37.202 102.535 37.688 102.517 38.0831C102.498 38.4783 102.472 38.8142 102.439 39.0908C102.406 39.3674 102.363 39.6035 102.31 39.7992C102.257 39.9949 102.185 40.1754 102.093 40.3409Z" fill="#7FA0C6"/>
<path d="M105.401 41.2169L105.54 35.5823L106.573 35.5951L106.527 37.4545L107.908 37.4716C108.534 37.4794 109.025 37.6545 109.379 37.9971C109.734 38.3334 109.905 38.7958 109.89 39.3843C109.876 39.9728 109.683 40.4339 109.311 40.7674C108.94 41.0948 108.441 41.2546 107.815 41.2468L105.401 41.2169ZM106.458 40.2531L107.839 40.2701C108.158 40.2741 108.407 40.1989 108.587 40.0445C108.766 39.8839 108.859 39.6565 108.867 39.3623C108.874 39.068 108.792 38.8415 108.62 38.6829C108.449 38.5179 108.204 38.4335 107.884 38.4295L106.503 38.4124L106.458 40.2531Z" fill="#7FA0C6"/>
<path d="M110.409 41.2952L110.884 35.6789L111.905 35.7515L111.621 39.1213L111.451 40.6818L111.563 40.6898L113.76 35.8833L115.513 36.0078L115.038 41.6242L114.017 41.5516L114.302 38.1818L114.471 36.6212L114.359 36.6133L112.162 41.4197L110.409 41.2952Z" fill="#7FA0C6"/>
<path d="M122.411 40.2758L120.1 39.9153L120.252 39.0263L122.563 39.3868L122.411 40.2758ZM120.396 42.4806C119.969 42.414 119.6 42.2678 119.289 42.0418C118.986 41.8107 118.759 41.5217 118.608 41.1751C118.459 40.8222 118.405 40.4273 118.448 39.9903L119.386 40.1366C119.421 40.5224 119.539 40.8386 119.738 41.0852C119.945 41.3265 120.218 41.4738 120.559 41.5269C121.023 41.5993 121.414 41.486 121.731 41.187C122.05 40.8818 122.262 40.4236 122.366 39.8125C122.474 39.1828 122.424 38.6713 122.218 38.2779C122.012 37.8845 121.665 37.6497 121.176 37.5734C120.799 37.5146 120.463 37.5826 120.169 37.7776C119.876 37.9726 119.652 38.2768 119.499 38.6903L118.562 38.544C118.66 38.0777 118.838 37.6903 119.094 37.3816C119.351 37.0668 119.668 36.8438 120.046 36.7127C120.425 36.5754 120.844 36.5424 121.302 36.6139C121.834 36.6969 122.271 36.8887 122.614 37.1893C122.956 37.4899 123.195 37.8789 123.33 38.3561C123.465 38.8273 123.481 39.3653 123.378 39.9703C123.277 40.5629 123.087 41.0625 122.808 41.4689C122.53 41.8692 122.185 42.1577 121.774 42.3344C121.363 42.511 120.903 42.5598 120.396 42.4806Z" fill="#7FA0C6"/>
<path d="M123.853 42.9221L124.824 38.3553L122.98 37.9918L123.181 37.0454L127.882 37.9724L127.681 38.9188L125.837 38.5553L124.867 43.1221L123.853 42.9221Z" fill="#7FA0C6"/>
<path d="M128.207 44.0253C127.702 43.9026 127.293 43.681 126.982 43.3604C126.672 43.0338 126.469 42.6301 126.373 42.1494C126.284 41.6701 126.315 41.1365 126.467 40.5484C126.62 39.9602 126.852 39.4754 127.164 39.0937C127.482 38.7135 127.857 38.4532 128.288 38.313C128.72 38.1667 129.189 38.1549 129.694 38.2776C130.205 38.4018 130.613 38.6264 130.917 38.9516C131.228 39.2721 131.429 39.6721 131.518 40.1513C131.614 40.632 131.585 41.1664 131.433 41.7545C131.281 42.3426 131.046 42.8268 130.728 43.207C130.415 43.5887 130.043 43.8527 129.611 43.999C129.186 44.1407 128.718 44.1494 128.207 44.0253ZM128.449 43.0885C128.918 43.2024 129.327 43.1213 129.676 42.8453C130.026 42.5694 130.28 42.1252 130.438 41.5129C130.597 40.9005 130.589 40.3928 130.415 39.9897C130.241 39.5866 129.92 39.3282 129.452 39.2143C128.983 39.1005 128.574 39.1816 128.224 39.4576C127.875 39.7335 127.621 40.1777 127.462 40.79C127.304 41.4024 127.312 41.9101 127.485 42.3132C127.659 42.7163 127.981 42.9747 128.449 43.0885Z" fill="#7FA0C6"/>
<path d="M131.479 44.7149L132.829 40.2455L131.022 39.7295L131.302 38.8032L135.909 40.1189L135.629 41.0452L133.822 40.5292L132.473 44.9987L131.479 44.7149Z" fill="#7FA0C6"/>
<path d="M133.974 46.908L134.799 44.659L135.136 44.7768C135.287 44.6905 135.425 44.5892 135.547 44.4729C135.678 44.3528 135.802 44.1971 135.919 44.0057C136.044 43.8106 136.176 43.5682 136.315 43.2787C136.457 42.9833 136.616 42.6211 136.794 42.1922C136.973 41.7574 137.184 41.2374 137.426 40.6321L141.017 41.8876L139.41 46.271L140.066 46.5004L139.242 48.7495L138.319 48.4271L138.811 47.0865L135.388 45.8898L134.896 47.2305L133.974 46.908ZM136.218 45.155L138.434 45.93L139.709 42.455L137.997 41.8567C137.775 42.3894 137.584 42.8368 137.425 43.199C137.265 43.5611 137.121 43.8654 136.99 44.1117C136.86 44.358 136.735 44.563 136.615 44.7267C136.495 44.8904 136.362 45.0331 136.218 45.155Z" fill="#7FA0C6"/>
<path d="M140.531 44.1103L143.685 45.3566L143.175 45.6804C143.416 45.0957 143.496 44.6085 143.412 44.2188C143.329 43.8291 143.087 43.5549 142.685 43.3961C142.248 43.2234 141.841 43.2509 141.462 43.4784C141.086 43.7002 140.779 44.1005 140.54 44.6794C140.284 45.2988 140.211 45.8219 140.319 46.2485C140.428 46.6752 140.709 46.9783 141.163 47.1578C141.46 47.2752 141.749 47.3052 142.031 47.2479C142.314 47.1849 142.59 47.0414 142.858 46.8176L143.758 47.1732C143.523 47.4976 143.246 47.7486 142.929 47.9263C142.618 48.1063 142.279 48.2047 141.913 48.2217C141.553 48.2409 141.184 48.1758 140.805 48.0261C140.316 47.8328 139.939 47.556 139.674 47.1956C139.416 46.8375 139.279 46.4132 139.265 45.9227C139.25 45.4323 139.364 44.8947 139.605 44.31C139.834 43.7542 140.125 43.3135 140.476 42.9877C140.835 42.6584 141.235 42.4528 141.675 42.3709C142.116 42.289 142.572 42.3413 143.043 42.5277C143.492 42.7049 143.83 42.9599 144.059 43.2926C144.287 43.6253 144.404 44.0247 144.408 44.4909C144.414 44.9513 144.302 45.4623 144.07 46.0238C144.044 46.0875 144.013 46.1529 143.979 46.2201C143.95 46.2896 143.92 46.355 143.888 46.4164L140.183 44.9526L140.531 44.1103Z" fill="#7FA0C6"/>
<path d="M142.258 48.4406L144.614 43.3204L145.559 43.7384L144.566 45.8974L146.748 46.8626L147.741 44.7035L148.686 45.1215L146.33 50.2418L145.385 49.8238L146.34 47.7501L144.157 46.7849L143.203 48.8586L142.258 48.4406Z" fill="#7FA0C6"/>
<path d="M146.181 50.1835L148.758 45.1707L149.683 45.6298L148.833 47.284L150.07 47.8974C150.631 48.1756 150.997 48.5458 151.168 49.0079C151.342 49.4645 151.294 49.9546 151.025 50.4781C150.756 51.0017 150.381 51.3332 149.901 51.4726C149.424 51.6064 148.905 51.5342 148.344 51.256L146.181 50.1835ZM147.553 49.7736L148.79 50.3871C149.076 50.529 149.334 50.5693 149.563 50.5079C149.794 50.441 149.977 50.2767 150.112 50.0149C150.246 49.7531 150.271 49.5136 150.185 49.2965C150.103 49.0738 149.918 48.8915 149.632 48.7496L148.395 48.1361L147.553 49.7736Z" fill="#7FA0C6"/>
<path d="M152.486 53.6466C151.772 53.2422 151.372 52.6736 151.286 51.941C151.202 51.2029 151.437 50.3609 151.991 49.4149C152.693 48.2149 153.404 47.4269 154.125 47.0507C154.854 46.6722 155.625 46.6878 156.437 47.0976L157.118 47.4402C157.283 47.5189 157.408 47.5467 157.494 47.5235C157.589 47.498 157.679 47.4192 157.763 47.2872L158.654 47.7919C158.447 48.1209 158.245 48.3483 158.048 48.4742C157.86 48.5978 157.652 48.6422 157.426 48.6075C157.205 48.5759 156.94 48.4833 156.631 48.3298L155.92 47.9814C155.488 47.7653 155.073 47.7245 154.675 47.8589C154.283 47.9964 153.905 48.3077 153.541 48.7926L153.647 48.8528C153.925 48.7007 154.219 48.633 154.528 48.6499C154.837 48.6668 155.147 48.7633 155.458 48.9392C155.872 49.1738 156.173 49.4776 156.361 49.8504C156.558 50.221 156.636 50.6325 156.597 51.0849C156.557 51.5374 156.396 52.0041 156.115 52.4852C155.83 52.9717 155.488 53.3462 155.087 53.6088C154.695 53.8691 154.275 54.0051 153.826 54.0168C153.385 54.0262 152.938 53.9028 152.486 53.6466ZM153.007 52.83C153.411 53.0584 153.809 53.0969 154.202 52.9455C154.595 52.794 154.936 52.4724 155.224 51.9805C155.512 51.4886 155.623 51.0373 155.559 50.6266C155.494 50.2158 155.261 49.8963 154.857 49.6678C154.449 49.4363 154.048 49.3963 153.654 49.5477C153.267 49.7022 152.929 50.0254 152.641 50.5173C152.353 51.0092 152.239 51.4589 152.298 51.8666C152.362 52.2773 152.599 52.5984 153.007 52.83Z" fill="#7FA0C6"/>
<path d="M156.729 49.3758L157.669 49.9643L156.607 54.2763L157.165 54.6255L156.403 55.268L155.448 54.6695L156.729 49.3758ZM161.227 52.194L155.968 56.5139C155.655 56.7684 155.334 56.9186 155.007 56.9645C154.679 57.0103 154.374 56.9452 154.093 56.7689C153.69 56.5162 153.443 56.2062 153.352 55.8389C153.261 55.4716 153.335 55.0675 153.575 54.6266L154.371 55.1254C154.323 55.3389 154.31 55.5084 154.334 55.6339C154.362 55.7627 154.443 55.8687 154.576 55.9518C154.692 56.025 154.809 56.0463 154.926 56.0159C155.047 55.9888 155.192 55.9093 155.359 55.7775L160.359 51.6503L161.227 52.194Z" fill="#7FA0C6"/>
<path d="M156.03 57.2368L157.409 55.278L157.704 55.4797C157.872 55.4359 158.031 55.3737 158.179 55.2933C158.337 55.2113 158.496 55.093 158.659 54.9386C158.83 54.7825 159.02 54.5828 159.23 54.3393C159.443 54.0907 159.691 53.7822 159.973 53.4139C160.259 53.0404 160.597 52.5927 160.988 52.0708L164.126 54.2208L161.439 58.0385L162.012 58.4313L160.634 60.3901L159.828 59.838L160.65 58.6704L157.658 56.6213L156.836 57.7889L156.03 57.2368ZM158.649 56.1274L160.586 57.4545L162.717 54.428L161.221 53.4034C160.869 53.8604 160.569 54.2431 160.321 54.5516C160.073 54.8601 159.855 55.1164 159.665 55.3204C159.475 55.5245 159.301 55.69 159.143 55.8169C158.985 55.9438 158.82 56.0473 158.649 56.1274Z" fill="#7FA0C6"/>
<path d="M163.133 56.2836L165.842 58.3234L165.266 58.501C165.653 58.0003 165.857 57.5508 165.88 57.1524C165.903 56.7541 165.741 56.4249 165.396 56.165C165.021 55.8825 164.621 55.801 164.197 55.9204C163.776 56.0348 163.375 56.3399 162.992 56.8357C162.582 57.3661 162.374 57.8517 162.366 58.2925C162.358 58.7333 162.549 59.1006 162.939 59.3944C163.194 59.5865 163.465 59.6922 163.75 59.7114C164.04 59.7256 164.344 59.6603 164.661 59.5153L165.434 60.0973C165.122 60.3481 164.79 60.5173 164.437 60.6048C164.09 60.696 163.738 60.7013 163.381 60.6206C163.029 60.5437 162.69 60.3829 162.365 60.138C161.945 59.8216 161.655 59.4543 161.495 59.0361C161.34 58.6217 161.321 58.1758 161.436 57.6983C161.551 57.2209 161.802 56.7318 162.189 56.2311C162.556 55.7552 162.952 55.4064 163.376 55.1849C163.809 54.9622 164.248 54.8697 164.694 54.9073C165.14 54.9449 165.565 55.1163 165.97 55.4214C166.355 55.7115 166.614 56.0474 166.747 56.4293C166.879 56.8112 166.886 57.2278 166.767 57.6791C166.652 58.1254 166.409 58.589 166.037 59.0699C165.995 59.1244 165.949 59.1796 165.898 59.2353C165.852 59.2948 165.805 59.3499 165.758 59.4007L162.576 57.0049L163.133 56.2836Z" fill="#7FA0C6"/>
<path d="M165 62.0018L168 58.4246L166.547 57.2335L167.169 56.4921L170.874 59.5293L170.252 60.2707L168.799 59.0796L165.799 62.6569L165 62.0018Z" fill="#7FA0C6"/>
<path d="M166.377 64.9649L168.016 63.2177L168.279 63.4593C168.452 63.4396 168.617 63.4004 168.775 63.3416C168.942 63.2825 169.117 63.1879 169.299 63.0577C169.49 62.9271 169.707 62.756 169.948 62.5442C170.194 62.3279 170.482 62.057 170.813 61.7317C171.148 61.4019 171.546 61.0057 172.005 60.5434L174.806 63.1181L171.612 66.5235L172.124 66.9939L170.485 68.7411L169.766 68.08L170.743 67.0385L168.073 64.5846L167.096 65.6261L166.377 64.9649ZM169.122 64.2348L170.851 65.8242L173.383 63.1245L172.048 61.8976C171.636 62.3009 171.285 62.6379 170.997 62.9088C170.709 63.1796 170.456 63.4028 170.24 63.5783C170.024 63.7539 169.829 63.8934 169.655 63.9969C169.48 64.1003 169.303 64.1796 169.122 64.2348Z" fill="#7FA0C6"/>
<path d="M170.191 66.6069L170.868 65.942L170.987 66.0615C171.102 66.1766 171.207 66.2586 171.3 66.3075C171.402 66.3565 171.513 66.3658 171.633 66.3354C171.762 66.3051 171.923 66.2176 172.115 66.073C172.311 65.9328 172.559 65.7289 172.858 65.4613L175.089 63.4276L177.786 66.1239L173.766 70.074L173.035 69.3435L176.365 66.0715L175.07 64.7765L173.355 66.3561C172.953 66.7246 172.607 66.9942 172.317 67.1649C172.036 67.3356 171.791 67.4271 171.582 67.4395C171.373 67.4518 171.173 67.4024 170.982 67.2914C170.796 67.176 170.598 67.0142 170.39 66.8062L170.191 66.6069Z" fill="#7FA0C6"/>
<path d="M175.565 72.0896L177.103 70.7087L176.267 69.7927C175.988 69.4874 175.801 69.1756 175.706 68.8573C175.61 68.539 175.605 68.2319 175.691 67.9359C175.786 67.6403 175.971 67.369 176.246 67.1221C176.521 66.8752 176.809 66.7217 177.11 66.6616C177.42 66.602 177.73 66.635 178.04 66.7608C178.35 66.8866 178.644 67.1022 178.923 67.4075L180.455 69.0868L176.262 72.8529L175.565 72.0896ZM173.26 69.5638L176.09 69.1812L176.869 70.0347L174.064 70.4451L173.26 69.5638ZM176.959 69.1713L177.794 70.0873L179.038 68.97L178.203 68.054C177.996 67.8274 177.777 67.6995 177.547 67.6704C177.326 67.6417 177.118 67.7153 176.922 67.891C176.726 68.0668 176.63 68.2673 176.632 68.4927C176.643 68.7184 176.752 68.9447 176.959 69.1713Z" fill="#7FA0C6"/>
<path d="M177.99 74.92L181.633 72.0006L180.449 70.542L181.204 69.9369L184.224 73.6564L183.469 74.2614L182.285 72.8028L178.641 75.7222L177.99 74.92Z" fill="#7FA0C6"/>
<path d="M182.485 75.0874L184.508 77.8088L183.907 77.8192C184.417 77.4445 184.738 77.0683 184.871 76.6908C185.004 76.3132 184.942 75.951 184.684 75.6043C184.403 75.2273 184.044 75.0372 183.604 75.0339C183.17 75.0269 182.7 75.2089 182.196 75.58C181.656 75.977 181.321 76.3867 181.19 76.8093C181.059 77.2319 181.14 77.6392 181.431 78.0312C181.622 78.2875 181.851 78.4647 182.119 78.5629C182.392 78.6575 182.701 78.6791 183.046 78.628L183.623 79.4045C183.254 79.5591 182.889 79.6295 182.527 79.6155C182.169 79.6066 181.831 79.5134 181.512 79.3361C181.196 79.1638 180.917 78.9144 180.674 78.5877C180.361 78.1655 180.186 77.7307 180.149 77.2831C180.117 76.8406 180.222 76.4054 180.466 75.9774C180.71 75.5494 181.086 75.1481 181.596 74.7733C182.08 74.4172 182.556 74.1915 183.024 74.0963C183.5 74.0024 183.947 74.0357 184.363 74.1963C184.778 74.3568 185.138 74.6406 185.44 75.0477C185.728 75.4347 185.882 75.8307 185.902 76.2356C185.922 76.6406 185.813 77.0439 185.573 77.4457C185.338 77.8437 184.976 78.2227 184.487 78.5826C184.431 78.6234 184.371 78.6636 184.307 78.7031C184.247 78.7476 184.187 78.7877 184.127 78.8235L181.751 75.6272L182.485 75.0874Z" fill="#7FA0C6"/>
<path d="M182.839 81.6445C182.378 80.9658 182.269 80.2764 182.513 79.5763C182.762 78.8727 183.341 78.2149 184.25 77.6028C185.403 76.8264 186.384 76.4263 187.193 76.4025C188.011 76.3805 188.693 76.7328 189.24 77.4595L189.698 78.068C189.811 78.2113 189.91 78.2913 189.998 78.3081C190.093 78.3267 190.208 78.2948 190.341 78.2125L190.917 79.0596C190.588 79.2661 190.307 79.383 190.076 79.4103C189.854 79.4394 189.649 79.3885 189.462 79.2579C189.278 79.1324 189.082 78.9324 188.873 78.6579L188.39 78.0314C188.099 77.6464 187.745 77.4274 187.331 77.3744C186.92 77.3264 186.446 77.4419 185.908 77.7207L185.977 77.8217C186.292 77.806 186.584 77.8736 186.853 78.0247C187.122 78.1757 187.357 78.3988 187.557 78.6941C187.825 79.0879 187.961 79.4945 187.966 79.9141C187.979 80.3353 187.869 80.7416 187.635 81.133C187.401 81.5245 187.053 81.8758 186.591 82.1871C186.123 82.5019 185.653 82.6901 185.18 82.7518C184.716 82.8152 184.281 82.7535 183.874 82.5669C183.476 82.382 183.131 82.0745 182.839 81.6445ZM183.662 81.1352C183.923 81.5186 184.262 81.7281 184.68 81.7639C185.098 81.7996 185.543 81.6583 186.016 81.34C186.488 81.0218 186.786 80.6629 186.908 80.2634C187.031 79.864 186.962 79.4726 186.701 79.0892C186.437 78.7006 186.097 78.4885 185.679 78.4527C185.264 78.4222 184.821 78.5661 184.348 78.8843C183.875 79.2026 183.576 79.5589 183.45 79.9532C183.328 80.3526 183.398 80.7466 183.662 81.1352Z" fill="#7FA0C6"/>
<path d="M185.612 85.6989L187.369 84.6105L186.713 83.5583C186.494 83.2076 186.367 82.8667 186.33 82.5358C186.293 82.2049 186.344 81.901 186.481 81.6244C186.627 81.3497 186.857 81.115 187.172 80.9204C187.486 80.7258 187.796 80.6257 188.102 80.62C188.417 80.6164 188.716 80.7042 188.997 80.8834C189.279 81.0626 189.529 81.3276 189.747 81.6783L190.95 83.6073L186.159 86.5757L185.612 85.6989ZM183.803 82.7974L186.649 82.9236L187.261 83.9041L184.434 83.8097L183.803 82.7974ZM187.504 83.0685L188.16 84.1207L189.581 83.2401L188.925 82.1879C188.763 81.9275 188.571 81.7625 188.351 81.6928C188.139 81.6252 187.921 81.6607 187.697 81.7992C187.474 81.9377 187.343 82.1183 187.305 82.3409C187.275 82.5656 187.341 82.8081 187.504 83.0685Z" fill="#7FA0C6"/>
<path d="M186.735 87.5895L191.687 84.8986L192.865 87.0598C193.153 87.5877 193.253 88.0604 193.167 88.478C193.084 88.901 192.822 89.2321 192.382 89.4713C192.167 89.5879 191.937 89.6308 191.692 89.6C191.456 89.5717 191.242 89.474 191.051 89.3069L190.952 89.3607C190.998 89.642 190.957 89.9067 190.828 90.1548C190.705 90.3999 190.512 90.5942 190.247 90.7378C189.807 90.977 189.385 91.0138 188.981 90.8484C188.58 90.6885 188.233 90.3391 187.939 89.8002L186.735 87.5895ZM188.071 88.0394L188.786 89.351C188.924 89.6039 189.081 89.768 189.257 89.8432C189.442 89.9209 189.636 89.9044 189.84 89.7938C190.044 89.6832 190.16 89.5307 190.19 89.3364C190.228 89.1446 190.178 88.9223 190.04 88.6693L189.326 87.3577L188.071 88.0394ZM190.118 86.9272L190.806 88.1892C190.944 88.4422 191.101 88.6063 191.277 88.6815C191.462 88.7591 191.651 88.7457 191.844 88.641C192.036 88.5364 192.147 88.3869 192.177 88.1926C192.215 88.0008 192.165 87.7785 192.027 87.5255L191.34 86.2634L190.118 86.9272Z" fill="#7FA0C6"/>
<path d="M189.518 93.2425C189.291 92.7748 189.201 92.3172 189.248 91.8696C189.301 91.4192 189.481 91.0011 189.788 90.6153C190.098 90.2351 190.526 89.9124 191.072 89.647C191.619 89.3816 192.137 89.2448 192.627 89.2364C193.12 89.2338 193.557 89.3523 193.938 89.592C194.325 89.829 194.631 90.1813 194.858 90.6489C195.088 91.1221 195.175 91.5811 195.119 92.0259C195.072 92.4735 194.894 92.8874 194.584 93.2676C194.277 93.6534 193.85 93.979 193.304 94.2444C192.757 94.5097 192.238 94.6438 191.745 94.6464C191.254 94.6548 190.816 94.5404 190.43 94.3035C190.051 94.0694 189.747 93.7157 189.518 93.2425ZM190.388 92.8198C190.599 93.2536 190.921 93.515 191.354 93.6041C191.787 93.6931 192.288 93.5995 192.857 93.3232C193.426 93.0469 193.809 92.711 194.007 92.3155C194.205 91.92 194.198 91.5054 193.988 91.0716C193.777 90.6378 193.456 90.3763 193.022 90.2873C192.589 90.1982 192.088 90.2918 191.519 90.5682C190.95 90.8445 190.567 91.1804 190.369 91.5758C190.171 91.9713 190.178 92.3859 190.388 92.8198Z" fill="#7FA0C6"/>
<path d="M191.19 96.8915C190.984 96.4211 190.914 95.9659 190.981 95.526C191.049 95.086 191.241 94.6832 191.56 94.3175C191.884 93.9493 192.321 93.6442 192.872 93.4023C193.433 93.1554 193.961 93.04 194.453 93.0561C194.951 93.0698 195.39 93.2053 195.769 93.4627C196.151 93.7258 196.449 94.1012 196.662 94.5889C196.848 95.0134 196.923 95.4253 196.886 95.8247C196.854 96.2216 196.718 96.5823 196.478 96.907C196.243 97.2292 195.911 97.4946 195.483 97.7033L195.102 96.8342C195.465 96.5858 195.704 96.2961 195.819 95.9651C195.936 95.6399 195.917 95.2994 195.762 94.9437C195.563 94.4905 195.246 94.2124 194.812 94.1093C194.377 94.0063 193.867 94.0833 193.282 94.3403C192.715 94.5897 192.323 94.9055 192.108 95.2876C191.898 95.6671 191.887 96.072 192.075 96.5022C192.216 96.8235 192.429 97.0516 192.713 97.1864C193.006 97.3245 193.343 97.3609 193.725 97.2958L194.106 98.1649C193.692 98.3126 193.294 98.3573 192.913 98.299C192.538 98.2382 192.198 98.0866 191.894 97.8442C191.598 97.6049 191.363 97.2874 191.19 96.8915Z" fill="#7FA0C6"/>
<path d="M191.947 98.2707L197.197 96.2203L198.765 100.267L193.515 102.318L193.141 101.354L197.49 99.6556L196.669 97.5358L192.32 99.2342L191.947 98.2707Z" fill="#7FA0C6"/>
<path d="M193.915 103.995C193.748 103.503 193.716 103.037 193.818 102.598C193.927 102.157 194.157 101.764 194.509 101.418C194.863 101.077 195.328 100.809 195.902 100.612C196.477 100.414 197.008 100.341 197.495 100.393C197.983 100.45 198.402 100.621 198.749 100.906C199.103 101.188 199.363 101.576 199.53 102.068C199.699 102.566 199.728 103.033 199.618 103.468C199.515 103.907 199.287 104.297 198.933 104.637C198.581 104.983 198.117 105.254 197.543 105.451C196.968 105.649 196.436 105.719 195.947 105.661C195.46 105.61 195.04 105.443 194.687 105.161C194.341 104.882 194.084 104.493 193.915 103.995ZM194.83 103.681C194.985 104.138 195.271 104.437 195.689 104.578C196.107 104.719 196.616 104.687 197.214 104.482C197.812 104.276 198.234 103.989 198.479 103.62C198.725 103.251 198.77 102.839 198.615 102.382C198.46 101.925 198.174 101.626 197.756 101.485C197.338 101.344 196.829 101.376 196.231 101.581C195.633 101.787 195.211 102.074 194.966 102.443C194.72 102.812 194.675 103.224 194.83 103.681Z" fill="#7FA0C6"/>
<path d="M194.496 105.21L199.898 103.603L200.364 105.199L196.795 107.153L196.824 107.252L200.867 106.922L201.319 108.473L195.917 110.08L195.649 109.16L197.99 108.464L200.341 107.803L200.312 107.704L196.394 108.027L196.005 106.692L199.465 104.801L199.436 104.701L197.105 105.434L194.764 106.13L194.496 105.21Z" fill="#7FA0C6"/>
<path d="M195.664 109.141L201.128 107.759L201.373 108.753L198.095 109.582L196.565 109.93L196.592 110.04L201.818 110.56L202.238 112.265L196.773 113.647L196.528 112.653L199.807 111.824L201.337 111.476L201.31 111.366L196.084 110.847L195.664 109.141Z" fill="#7FA0C6"/>
<path d="M196.607 112.994L202.124 111.839L202.328 112.852L200.002 113.339L200.473 115.678L202.799 115.191L203.004 116.204L197.487 117.359L197.283 116.346L199.517 115.878L199.045 113.539L196.811 114.007L196.607 112.994Z" fill="#7FA0C6"/>
<path d="M201.397 119.683L200.498 119.833L199.975 118.206C199.89 117.954 199.77 117.774 199.613 117.667C199.458 117.566 199.269 117.534 199.047 117.571C198.837 117.606 198.679 117.711 198.574 117.888C198.469 118.07 198.437 118.285 198.476 118.532C198.519 118.805 198.623 119.041 198.788 119.242C198.954 119.45 199.155 119.603 199.393 119.703C199.637 119.802 199.892 119.83 200.157 119.785L201.52 119.558C201.878 119.499 202.142 119.343 202.311 119.093C202.481 118.842 202.536 118.528 202.476 118.151C202.434 117.885 202.354 117.654 202.234 117.458C202.114 117.262 201.96 117.11 201.772 117.002C201.585 116.9 201.367 116.844 201.118 116.835L200.964 115.861C201.395 115.821 201.782 115.88 202.124 116.039C202.467 116.204 202.75 116.455 202.975 116.792C203.199 117.129 203.35 117.539 203.426 118.021C203.535 118.714 203.444 119.279 203.151 119.715C202.86 120.157 202.39 120.432 201.741 120.54L198.063 121.154L197.906 120.161L198.415 120.076L198.371 119.797C198.138 119.684 197.947 119.516 197.797 119.293C197.649 119.077 197.547 118.795 197.493 118.449C197.439 118.109 197.457 117.801 197.547 117.526C197.643 117.256 197.801 117.029 198.019 116.847C198.239 116.671 198.509 116.556 198.83 116.502C199.294 116.425 199.697 116.51 200.04 116.757C200.39 117.004 200.652 117.395 200.825 117.931L201.397 119.683Z" fill="#7FA0C6"/>
<path d="M197.983 120.639L203.576 119.94L203.694 120.967L201.336 121.261L201.609 123.632L203.968 123.337L204.086 124.364L198.493 125.062L198.375 124.036L200.64 123.753L200.367 121.382L198.101 121.665L197.983 120.639Z" fill="#7FA0C6"/>
<path d="M198.415 124.409L204.034 123.96L204.105 124.982L200.734 125.251L199.167 125.338L199.175 125.451L204.233 126.837L204.355 128.59L198.736 129.038L198.666 128.017L202.037 127.748L203.603 127.66L203.595 127.548L198.537 126.161L198.415 124.409Z" fill="#7FA0C6"/>
<path d="M202.101 128.865L202.195 132.255L201.697 131.926C202.329 131.902 202.808 131.77 203.133 131.532C203.459 131.293 203.615 130.958 203.603 130.526C203.59 130.057 203.405 129.697 203.047 129.448C202.696 129.199 202.207 129.086 201.581 129.111C200.912 129.137 200.402 129.288 200.053 129.565C199.703 129.842 199.536 130.225 199.549 130.713C199.558 131.032 199.644 131.308 199.807 131.54C199.976 131.771 200.216 131.962 200.528 132.113L200.554 133.08C200.164 133.002 199.825 132.855 199.537 132.641C199.249 132.433 199.026 132.166 198.866 131.84C198.707 131.52 198.622 131.157 198.61 130.75C198.596 130.224 198.702 129.765 198.929 129.374C199.157 128.989 199.493 128.688 199.938 128.47C200.383 128.252 200.921 128.131 201.553 128.106C202.154 128.082 202.673 128.162 203.111 128.346C203.554 128.535 203.9 128.813 204.149 129.179C204.397 129.546 204.528 129.982 204.542 130.489C204.555 130.972 204.454 131.386 204.238 131.733C204.022 132.08 203.701 132.352 203.274 132.551C202.854 132.749 202.34 132.86 201.733 132.884C201.664 132.886 201.592 132.886 201.517 132.883C201.442 132.886 201.37 132.885 201.301 132.882L201.19 128.9L202.101 128.865Z" fill="#7FA0C6"/>
<path d="M198.819 131.942L204.456 131.949L204.433 133.612L200.448 134.461L200.447 134.564L204.409 135.406L204.387 137.021L198.751 137.014L198.764 136.056L201.206 136.059L203.648 136.1L203.65 135.997L199.809 135.184L199.828 133.793L203.69 132.972L203.692 132.869L201.249 132.903L198.807 132.9L198.819 131.942Z" fill="#7FA0C6"/>
<path d="M198.557 138.385C198.573 138.11 198.663 137.901 198.828 137.758C198.994 137.615 199.22 137.55 199.508 137.563C199.789 137.576 200.004 137.661 200.152 137.818C200.299 137.975 200.365 138.191 200.349 138.466C200.333 138.741 200.242 138.95 200.077 139.093C199.912 139.236 199.689 139.301 199.407 139.289C199.119 139.276 198.902 139.191 198.754 139.033C198.606 138.876 198.541 138.66 198.557 138.385Z" fill="#7FA0C6"/>
<path d="M197.883 146.112L198.001 145.076L202.647 145.543L204.792 145.796L204.804 145.694L198.239 142.995L198.446 141.184L205.924 141.936L205.805 142.972L201.16 142.505L199.015 142.251L199.003 142.354L205.567 145.053L205.36 146.863L197.883 146.112Z" fill="#7FA0C6"/>
<path d="M197.032 150.835L201.622 151.688L201.992 149.846L202.943 150.023L201.999 154.72L201.048 154.543L201.418 152.701L196.828 151.848L197.032 150.835Z" fill="#7FA0C6"/>
<path d="M195.924 155.088C196.047 154.583 196.269 154.171 196.592 153.853C196.92 153.536 197.326 153.323 197.81 153.215C198.293 153.113 198.83 153.129 199.422 153.264C200.015 153.399 200.503 153.616 200.888 153.915C201.271 154.221 201.534 154.586 201.675 155.01C201.823 155.435 201.836 155.9 201.713 156.405C201.589 156.916 201.363 157.327 201.036 157.638C200.714 157.957 200.311 158.167 199.829 158.269C199.345 158.377 198.807 158.364 198.215 158.229C197.622 158.094 197.134 157.874 196.751 157.569C196.367 157.269 196.1 156.907 195.952 156.481C195.809 156.064 195.8 155.599 195.924 155.088ZM196.867 155.303C196.753 155.771 196.836 156.175 197.114 156.515C197.392 156.854 197.84 157.094 198.457 157.234C199.073 157.375 199.585 157.353 199.99 157.169C200.396 156.985 200.656 156.659 200.769 156.191C200.883 155.722 200.801 155.318 200.523 154.978C200.245 154.639 199.797 154.399 199.18 154.259C198.564 154.118 198.052 154.14 197.647 154.324C197.241 154.508 196.981 154.834 196.867 155.303Z" fill="#7FA0C6"/>
<path d="M195.753 156.262L196.668 156.512L196.621 156.675C196.576 156.831 196.554 156.962 196.556 157.066C196.563 157.178 196.609 157.278 196.694 157.367C196.784 157.463 196.939 157.557 197.16 157.65C197.379 157.749 197.679 157.86 198.06 157.984L200.937 158.889L199.875 162.552L194.438 161.063L194.726 160.071L199.229 161.304L199.74 159.545L197.514 158.857C196.993 158.695 196.587 158.532 196.296 158.368C196.009 158.211 195.809 158.046 195.696 157.873C195.584 157.699 195.53 157.502 195.535 157.283C195.546 157.065 195.592 156.815 195.674 156.532L195.753 156.262Z" fill="#7FA0C6"/>
<path d="M194.499 160.834L199.871 162.539L199.544 163.519L197.771 162.957L197.334 164.266C197.135 164.86 196.817 165.278 196.38 165.521C195.948 165.765 195.452 165.798 194.891 165.62C194.33 165.442 193.946 165.129 193.739 164.683C193.537 164.238 193.536 163.718 193.734 163.124L194.499 160.834ZM195.103 162.11L194.665 163.42C194.564 163.723 194.56 163.981 194.654 164.195C194.754 164.41 194.944 164.563 195.224 164.652C195.505 164.741 195.748 164.726 195.952 164.607C196.163 164.49 196.319 164.28 196.42 163.977L196.858 162.667L195.103 162.11Z" fill="#7FA0C6"/>
<path d="M192.112 167.499L195.552 166.187L197.372 169.524L196.908 170.734L195.113 167.437L191.625 168.771L192.112 167.499ZM193.235 164.569L198.528 166.506L198.158 167.471L192.865 165.534L193.235 164.569Z" fill="#7FA0C6"/>
<path d="M190.946 169.846C191.152 169.368 191.44 168.999 191.81 168.739C192.187 168.481 192.623 168.339 193.118 168.313C193.611 168.292 194.138 168.398 194.7 168.629C195.261 168.861 195.707 169.156 196.036 169.515C196.363 169.88 196.562 170.284 196.631 170.725C196.706 171.169 196.641 171.63 196.435 172.108C196.228 172.591 195.937 172.959 195.563 173.211C195.192 173.471 194.76 173.612 194.267 173.632C193.772 173.658 193.244 173.556 192.682 173.324C192.12 173.093 191.676 172.794 191.349 172.429C191.02 172.07 190.817 171.668 190.742 171.224C190.671 170.788 190.739 170.329 190.946 169.846ZM191.841 170.214C191.651 170.657 191.664 171.069 191.882 171.45C192.1 171.831 192.502 172.142 193.086 172.383C193.671 172.624 194.179 172.688 194.609 172.574C195.04 172.46 195.35 172.182 195.541 171.739C195.731 171.296 195.717 170.884 195.5 170.503C195.282 170.122 194.88 169.811 194.295 169.57C193.711 169.329 193.203 169.265 192.772 169.379C192.342 169.493 192.031 169.771 191.841 170.214Z" fill="#7FA0C6"/>
<path d="M189.047 174.32L193.253 176.348L194.093 174.668L194.965 175.088L192.821 179.373L191.95 178.952L192.79 177.272L188.585 175.244L189.047 174.32Z" fill="#7FA0C6"/>
<path d="M188.341 175.776L193.315 178.428L192.816 179.332L191.175 178.458L190.862 179.025C190.565 179.563 190.183 179.905 189.716 180.053C189.253 180.204 188.762 180.141 188.243 179.865C187.723 179.588 187.399 179.216 187.27 178.75C187.146 178.287 187.233 177.786 187.529 177.249L188.341 175.776ZM188.704 177.141L188.36 177.766C188.227 178.007 188.194 178.235 188.262 178.449C188.33 178.662 188.491 178.837 188.746 178.972C189 179.108 189.237 179.145 189.456 179.085C189.675 179.024 189.851 178.873 189.984 178.632L190.329 178.007L188.704 177.141ZM186.182 179.692L191.156 182.343L190.657 183.248L185.683 180.597L186.182 179.692Z" fill="#7FA0C6"/>
<path d="M184.338 182.782L189.07 185.845L188.148 187.229L184.338 185.781L184.281 185.867L187.153 188.722L186.257 190.067L181.526 187.004L182.057 186.206L184.107 187.534L186.137 188.892L186.194 188.806L183.409 186.041L184.18 184.884L187.871 186.289L187.928 186.203L185.857 184.907L183.807 183.58L184.338 182.782Z" fill="#7FA0C6"/>
<path d="M180.597 187.968C180.903 187.548 181.265 187.252 181.683 187.08C182.107 186.912 182.563 186.87 183.052 186.954C183.536 187.044 184.026 187.264 184.522 187.615C185.018 187.965 185.387 188.353 185.629 188.777C185.867 189.206 185.971 189.643 185.94 190.09C185.915 190.54 185.75 190.975 185.445 191.396C185.136 191.822 184.771 192.116 184.351 192.279C183.932 192.451 183.48 192.492 182.996 192.403C182.508 192.318 182.016 192.101 181.52 191.75C181.024 191.399 180.657 191.009 180.419 190.58C180.177 190.156 180.069 189.719 180.094 189.269C180.12 188.828 180.288 188.394 180.597 187.968ZM181.387 188.527C181.104 188.917 181.026 189.323 181.154 189.743C181.283 190.163 181.605 190.556 182.121 190.921C182.638 191.286 183.118 191.461 183.563 191.446C184.007 191.431 184.371 191.228 184.655 190.837C184.938 190.447 185.016 190.042 184.887 189.622C184.759 189.201 184.437 188.808 183.921 188.443C183.404 188.078 182.924 187.903 182.479 187.919C182.035 187.934 181.671 188.137 181.387 188.527Z" fill="#7FA0C6"/>
<path d="M177.161 192.664L179.313 193.098L179.604 193.229L179.797 192.986L180.502 193.534L180.291 193.798L180.489 194.047L181.507 196.253L180.852 197.077L179.525 194.143L176.453 193.553L177.161 192.664ZM180.091 188.981L181.397 191.791L184.595 192.372L183.94 193.195L181.531 192.739L181.239 192.608L181.028 192.872L180.324 192.325L180.517 192.082L180.319 191.833L179.384 189.87L180.091 188.981ZM178.588 190.87L183.04 194.327L182.408 195.121L177.957 191.664L178.588 190.87Z" fill="#7FA0C6"/>
<path d="M179.437 195.218L177.22 197.783L177.074 197.205C177.557 197.613 177.999 197.839 178.4 197.883C178.801 197.927 179.142 197.785 179.425 197.458C179.732 197.103 179.838 196.712 179.742 196.287C179.651 195.866 179.366 195.453 178.888 195.049C178.376 194.616 177.898 194.384 177.453 194.353C177.009 194.321 176.627 194.49 176.307 194.86C176.098 195.101 175.976 195.363 175.94 195.644C175.909 195.929 175.957 196.232 176.085 196.554L175.452 197.286C175.217 196.964 175.066 196.627 174.998 196.274C174.926 195.927 174.941 195.579 175.043 195.231C175.141 194.887 175.324 194.561 175.59 194.253C175.934 193.855 176.321 193.589 176.753 193.453C177.18 193.323 177.632 193.327 178.107 193.466C178.583 193.606 179.062 193.88 179.545 194.288C180.004 194.676 180.333 195.085 180.532 195.516C180.732 195.955 180.8 196.394 180.736 196.832C180.672 197.27 180.474 197.681 180.142 198.065C179.827 198.429 179.473 198.667 179.079 198.777C178.686 198.888 178.265 198.872 177.816 198.731C177.372 198.593 176.918 198.328 176.454 197.936C176.402 197.892 176.349 197.843 176.296 197.79C176.238 197.741 176.185 197.692 176.137 197.643L178.741 194.629L179.437 195.218Z" fill="#7FA0C6"/>
<path d="M175.078 195.111L179.228 198.926L178.572 199.625L175.135 196.465L174.248 197.411L177.685 200.57L177.03 201.269L173.593 198.109L172.706 199.055L176.143 202.215L175.488 202.913L171.338 199.099L175.078 195.111Z" fill="#7FA0C6"/>
<path d="M171.839 198.562L175.826 202.547L175.088 203.271L173.773 201.956L172.788 202.924C172.341 203.363 171.869 203.59 171.37 203.605C170.877 203.625 170.422 203.427 170.005 203.011C169.589 202.595 169.391 202.14 169.411 201.646C169.435 201.157 169.67 200.693 170.117 200.254L171.839 198.562ZM171.793 199.977L170.808 200.945C170.58 201.169 170.459 201.397 170.445 201.631C170.435 201.869 170.534 202.092 170.742 202.3C170.95 202.508 171.172 202.606 171.408 202.594C171.648 202.586 171.882 202.47 172.11 202.247L173.095 201.279L171.793 199.977Z" fill="#7FA0C6"/>
<path d="M166.428 203.44C166.814 203.101 167.227 202.896 167.668 202.826C168.109 202.756 168.553 202.816 169 203.007C169.451 203.202 169.876 203.524 170.277 203.973C170.685 204.431 170.957 204.896 171.093 205.369C171.233 205.846 171.239 206.304 171.109 206.742C170.975 207.185 170.708 207.582 170.308 207.933C169.96 208.239 169.59 208.435 169.197 208.521C168.808 208.612 168.422 208.593 168.038 208.464C167.658 208.339 167.303 208.105 166.972 207.762L167.685 207.136C168.034 207.405 168.384 207.543 168.735 207.552C169.082 207.564 169.401 207.442 169.693 207.186C170.065 206.859 170.233 206.474 170.198 206.03C170.162 205.586 169.932 205.126 169.507 204.649C169.095 204.186 168.673 203.911 168.242 203.822C167.815 203.739 167.425 203.852 167.072 204.162C166.808 204.393 166.656 204.665 166.615 204.976C166.573 205.296 166.642 205.627 166.821 205.97L166.108 206.596C165.84 206.248 165.675 205.884 165.614 205.505C165.556 205.13 165.597 204.761 165.735 204.398C165.872 204.044 166.103 203.725 166.428 203.44Z" fill="#7FA0C6"/>
<path d="M164.7 203.283L166.21 205.143L165.932 205.366C165.927 205.539 165.942 205.707 165.978 205.871C166.013 206.043 166.083 206.228 166.187 206.426C166.29 206.632 166.43 206.869 166.607 207.137C166.787 207.409 167.017 207.731 167.294 208.102C167.575 208.479 167.914 208.926 168.31 209.443L165.341 211.822L162.398 208.198L161.856 208.632L160.346 206.773L161.108 206.162L162.008 207.27L164.838 205.003L163.938 203.894L164.7 203.283ZM165.037 206.083L163.205 207.551L165.537 210.425L166.952 209.291C166.609 208.828 166.322 208.436 166.093 208.114C165.864 207.792 165.677 207.512 165.533 207.275C165.389 207.037 165.277 206.826 165.199 206.64C165.12 206.454 165.067 206.268 165.037 206.083Z" fill="#7FA0C6"/>
<path d="M163.635 210.299L160.903 212.308L160.892 211.71C161.269 212.218 161.648 212.538 162.027 212.671C162.407 212.803 162.771 212.742 163.119 212.486C163.497 212.208 163.688 211.85 163.69 211.413C163.697 210.98 163.513 210.513 163.14 210.01C162.74 209.473 162.327 209.138 161.902 209.008C161.478 208.877 161.068 208.957 160.675 209.246C160.418 209.435 160.24 209.663 160.141 209.93C160.047 210.201 160.026 210.509 160.077 210.851L159.298 211.425C159.142 211.057 159.071 210.694 159.084 210.334C159.093 209.978 159.186 209.641 159.363 209.324C159.536 209.011 159.786 208.733 160.114 208.492C160.538 208.18 160.975 208.007 161.425 207.972C161.869 207.94 162.307 208.046 162.737 208.289C163.168 208.532 163.572 208.907 163.949 209.415C164.308 209.897 164.536 210.371 164.632 210.837C164.727 211.311 164.694 211.755 164.533 212.169C164.373 212.582 164.088 212.939 163.679 213.24C163.291 213.525 162.893 213.678 162.486 213.697C162.079 213.717 161.674 213.607 161.27 213.368C160.869 213.134 160.488 212.773 160.125 212.285C160.084 212.23 160.044 212.17 160.004 212.106C159.959 212.046 159.919 211.986 159.883 211.927L163.091 209.568L163.635 210.299Z" fill="#7FA0C6"/>
<path d="M159.573 209.025L160.109 209.808L159.969 209.903C159.834 209.994 159.734 210.081 159.669 210.163C159.602 210.254 159.573 210.361 159.581 210.484C159.588 210.615 159.646 210.788 159.754 211.002C159.858 211.219 160.015 211.499 160.226 211.84L161.836 214.391L158.68 216.533L155.496 211.883L156.351 211.303L158.989 215.155L160.504 214.126L159.25 212.161C158.958 211.701 158.753 211.314 158.637 211C158.519 210.694 158.472 210.438 158.498 210.231C158.523 210.025 158.608 209.838 158.753 209.672C158.9 209.511 159.096 209.348 159.34 209.183L159.573 209.025Z" fill="#7FA0C6"/>
<path d="M154.774 216.448L154.292 215.674L155.59 214.561C155.79 214.385 155.91 214.204 155.949 214.018C155.982 213.835 155.939 213.648 155.82 213.457C155.707 213.276 155.55 213.171 155.347 213.142C155.139 213.116 154.929 213.169 154.716 213.301C154.481 213.446 154.303 213.634 154.181 213.864C154.054 214.098 153.99 214.344 153.988 214.602C153.991 214.866 154.063 215.112 154.205 215.341L154.936 216.513C155.128 216.821 155.372 217.005 155.668 217.065C155.964 217.125 156.274 217.054 156.599 216.853C156.827 216.711 157.009 216.547 157.144 216.361C157.278 216.174 157.36 215.973 157.387 215.757C157.41 215.544 157.377 215.321 157.291 215.087L158.129 214.568C158.331 214.951 158.425 215.331 158.409 215.709C158.389 216.09 158.266 216.45 158.041 216.788C157.817 217.126 157.497 217.424 157.082 217.681C156.485 218.05 155.93 218.184 155.417 218.083C154.898 217.984 154.464 217.656 154.116 217.098L152.143 213.933L152.998 213.404L153.271 213.842L153.511 213.694C153.526 213.434 153.607 213.192 153.755 212.968C153.898 212.747 154.118 212.544 154.416 212.359C154.709 212.178 154.999 212.075 155.287 212.052C155.573 212.037 155.842 212.095 156.094 212.226C156.34 212.361 156.549 212.566 156.722 212.843C156.97 213.241 157.046 213.647 156.95 214.061C156.856 214.479 156.596 214.873 156.169 215.241L154.774 216.448Z" fill="#7FA0C6"/>
<path d="M151.013 214.572L153.31 218.637L154.947 217.715L155.424 218.557L151.249 220.908L150.773 220.066L152.41 219.144L150.112 215.08L151.013 214.572Z" fill="#7FA0C6"/>
<path d="M148.673 215.882L151.233 220.904L150.312 221.373L149.467 219.716L148.237 220.342C147.679 220.627 147.161 220.7 146.684 220.564C146.209 220.433 145.839 220.106 145.571 219.581C145.304 219.057 145.255 218.561 145.425 218.095C145.598 217.635 145.964 217.262 146.522 216.978L148.673 215.882ZM148.196 217.222L146.965 217.848C146.681 217.993 146.496 218.175 146.411 218.394C146.328 218.619 146.354 218.863 146.488 219.125C146.622 219.387 146.802 219.548 147.029 219.608C147.26 219.673 147.517 219.634 147.802 219.489L149.032 218.862L148.196 217.222Z" fill="#7FA0C6"/>
<path d="M142.473 218.894L144.346 223.171L146.066 222.415L146.454 223.301L142.068 225.229L141.68 224.343L143.4 223.587L141.527 219.31L142.473 218.894Z" fill="#7FA0C6"/>
<path d="M138.376 224.382L138.047 223.533L139.527 222.672C139.756 222.536 139.907 222.379 139.979 222.203C140.046 222.029 140.039 221.837 139.958 221.627C139.881 221.428 139.746 221.296 139.552 221.23C139.353 221.167 139.137 221.181 138.903 221.272C138.647 221.372 138.437 221.525 138.275 221.729C138.106 221.936 137.998 222.167 137.948 222.421C137.902 222.682 137.927 222.937 138.024 223.189L138.523 224.476C138.654 224.815 138.859 225.041 139.138 225.154C139.417 225.267 139.734 225.254 140.09 225.115C140.341 225.017 140.55 224.888 140.716 224.729C140.883 224.57 141 224.386 141.067 224.178C141.129 223.973 141.139 223.747 141.097 223.501L142.016 223.142C142.143 223.557 142.164 223.949 142.078 224.318C141.987 224.69 141.8 225.022 141.517 225.314C141.234 225.606 140.865 225.841 140.41 226.018C139.757 226.274 139.188 226.304 138.703 226.11C138.212 225.919 137.848 225.516 137.61 224.903L136.263 221.426L137.199 221.06L137.386 221.542L137.649 221.439C137.712 221.186 137.837 220.962 138.023 220.769C138.204 220.577 138.458 220.417 138.785 220.29C139.106 220.164 139.409 220.116 139.696 220.146C139.979 220.183 140.232 220.289 140.454 220.465C140.671 220.642 140.838 220.883 140.956 221.186C141.125 221.624 141.125 222.038 140.953 222.428C140.784 222.823 140.456 223.163 139.968 223.448L138.376 224.382Z" fill="#7FA0C6"/>
<path d="M133.373 222.418L136.536 224.233L135.093 227.787L133.867 228.208L135.296 224.698L132.084 222.861L133.373 222.418ZM136.34 221.4L138.149 226.738L137.172 227.073L135.363 221.735L136.34 221.4Z" fill="#7FA0C6"/>
<path d="M131.254 221.317C131.084 221.563 130.955 221.86 130.867 222.206C130.779 222.552 130.754 222.89 130.791 223.219L131.273 224.869C130.954 224.964 130.697 224.942 130.5 224.805C130.298 224.669 130.142 224.415 130.033 224.042C129.954 223.771 129.899 223.494 129.868 223.209C129.837 222.924 129.83 222.652 129.845 222.392C129.861 222.133 129.904 221.901 129.975 221.697L131.254 221.317ZM130.77 223.147C131.034 223.068 131.26 223.082 131.448 223.19C131.636 223.297 131.77 223.489 131.851 223.766C131.93 224.036 131.919 224.268 131.819 224.461C131.719 224.655 131.537 224.79 131.273 224.869C131.008 224.947 130.782 224.933 130.594 224.826C130.407 224.718 130.273 224.529 130.194 224.259C130.113 223.982 130.123 223.747 130.223 223.554C130.324 223.361 130.506 223.225 130.77 223.147Z" fill="#7FA0C6"/>
<path d="M124.635 224.844L125.107 226.895C125.281 226.789 125.471 226.693 125.676 226.605C125.875 226.52 126.102 226.447 126.358 226.386C127.029 226.227 127.572 226.272 127.989 226.521C128.406 226.77 128.687 227.208 128.831 227.837L129.225 229.549L128.219 229.787L127.826 228.075C127.749 227.74 127.597 227.512 127.37 227.392C127.143 227.272 126.829 227.259 126.427 227.354C126.207 227.406 126.01 227.469 125.834 227.543C125.659 227.623 125.489 227.718 125.321 227.829L125.898 230.337L124.892 230.575L123.63 225.082L124.635 224.844Z" fill="#7FA0C6"/>
<path d="M122.342 225.33L123.194 229.92L125.038 229.563L125.215 230.514L120.511 231.425L120.335 230.474L122.179 230.117L121.327 225.527L122.342 225.33Z" fill="#7FA0C6"/>
<path d="M118.012 225.94C118.526 225.862 118.989 225.912 119.4 226.091C119.812 226.275 120.155 226.572 120.428 226.98C120.695 227.389 120.872 227.895 120.957 228.496C121.043 229.098 121.015 229.634 120.873 230.105C120.725 230.577 120.479 230.96 120.135 231.252C119.792 231.551 119.363 231.74 118.849 231.818C118.329 231.896 117.866 231.843 117.46 231.657C117.049 231.479 116.71 231.185 116.443 230.776C116.17 230.368 115.99 229.863 115.905 229.261C115.819 228.66 115.85 228.123 115.998 227.651C116.14 227.18 116.382 226.795 116.725 226.496C117.063 226.204 117.492 226.019 118.012 225.94ZM118.149 226.898C117.672 226.97 117.325 227.2 117.108 227.587C116.892 227.975 116.828 228.482 116.917 229.108C117.006 229.734 117.208 230.201 117.524 230.508C117.84 230.815 118.236 230.932 118.713 230.86C119.19 230.788 119.536 230.558 119.753 230.17C119.97 229.783 120.034 229.276 119.945 228.65C119.856 228.023 119.653 227.557 119.338 227.25C119.022 226.943 118.626 226.826 118.149 226.898Z" fill="#7FA0C6"/>
<path d="M114.228 226.441C115.043 226.352 115.702 226.579 116.203 227.122C116.705 227.672 117.01 228.492 117.119 229.582C117.257 230.966 117.145 232.021 116.783 232.747C116.416 233.481 115.783 233.919 114.885 234.061L114.132 234.182C113.953 234.214 113.835 234.265 113.779 234.334C113.718 234.41 113.692 234.526 113.701 234.683L112.683 234.795C112.657 234.407 112.687 234.104 112.772 233.887C112.852 233.677 112.993 233.519 113.197 233.415C113.394 233.312 113.663 233.232 114.004 233.175L114.783 233.042C115.26 232.965 115.62 232.755 115.863 232.414C116.099 232.073 116.222 231.599 116.231 230.993L116.109 231.007C115.974 231.293 115.777 231.519 115.516 231.686C115.256 231.853 114.949 231.956 114.594 231.995C114.121 232.047 113.698 231.977 113.327 231.785C112.949 231.6 112.644 231.312 112.41 230.922C112.176 230.532 112.031 230.059 111.976 229.505C111.92 228.944 111.976 228.44 112.146 227.993C112.309 227.553 112.569 227.197 112.926 226.924C113.277 226.659 113.711 226.498 114.228 226.441ZM114.287 227.408C113.826 227.459 113.481 227.66 113.252 228.013C113.023 228.366 112.937 228.826 112.993 229.393C113.05 229.96 113.225 230.391 113.519 230.687C113.813 230.982 114.19 231.104 114.651 231.054C115.118 231.002 115.466 230.8 115.695 230.448C115.918 230.095 116.001 229.636 115.944 229.069C115.887 228.502 115.715 228.07 115.428 227.774C115.134 227.479 114.754 227.357 114.287 227.408Z" fill="#7FA0C6"/>
<path d="M112.723 226.792L113.028 232.421L111.997 232.488L111.896 230.63L111.249 230.672C110.637 230.712 110.146 230.575 109.778 230.26C109.41 229.951 109.21 229.503 109.178 228.915C109.147 228.327 109.297 227.853 109.628 227.493C109.96 227.138 110.432 226.941 111.045 226.902L112.723 226.792ZM111.745 227.835L111.032 227.881C110.757 227.899 110.546 227.995 110.399 228.167C110.251 228.34 110.185 228.57 110.201 228.858C110.216 229.146 110.307 229.366 110.472 229.518C110.637 229.67 110.857 229.738 111.132 229.72L111.844 229.674L111.745 227.835ZM108.261 227.083L108.566 232.711L107.535 232.778L107.23 227.15L108.261 227.083Z" fill="#7FA0C6"/>
<path d="M103.339 229.518L105.678 229.495L105.676 230.397L103.337 230.42L103.339 229.518ZM104.961 227.013C105.393 227.009 105.781 227.093 106.125 227.265C106.463 227.443 106.734 227.691 106.94 228.008C107.146 228.332 107.264 228.713 107.295 229.151L106.346 229.16C106.247 228.785 106.078 228.493 105.841 228.282C105.597 228.078 105.303 227.977 104.958 227.981C104.489 227.985 104.122 228.161 103.858 228.508C103.594 228.861 103.462 229.348 103.46 229.968C103.459 230.606 103.592 231.103 103.861 231.457C104.129 231.812 104.511 231.987 105.006 231.982C105.388 231.978 105.707 231.856 105.965 231.616C106.222 231.375 106.392 231.038 106.474 230.606L107.423 230.596C107.403 231.072 107.293 231.484 107.091 231.83C106.89 232.183 106.614 232.455 106.263 232.646C105.912 232.843 105.505 232.945 105.041 232.949C104.503 232.954 104.039 232.837 103.652 232.596C103.264 232.356 102.964 232.011 102.752 231.562C102.54 231.119 102.435 230.591 102.437 229.978C102.438 229.376 102.542 228.852 102.75 228.406C102.958 227.965 103.25 227.624 103.626 227.383C104.002 227.141 104.447 227.018 104.961 227.013Z" fill="#7FA0C6"/>
<path d="M101.611 227.15L101.409 231.814L103.287 231.872L103.245 232.838L98.4561 232.691L98.4981 231.725L100.376 231.782L100.578 227.118L101.611 227.15Z" fill="#7FA0C6"/>
<path d="M99.1711 227.09L98.6761 232.704L97.655 232.628L97.952 229.259L98.1272 227.699L98.0148 227.691L95.8002 232.489L94.0484 232.358L94.5434 226.744L95.5645 226.82L95.2675 230.189L95.0923 231.749L95.2047 231.757L97.4193 226.959L99.1711 227.09Z" fill="#7FA0C6"/>
<path d="M93.8734 226.676L93.0683 232.255L90.6277 231.938C90.0315 231.86 89.5916 231.664 89.308 231.349C89.0182 231.034 88.9091 230.628 88.9807 230.132C89.0156 229.891 89.1187 229.68 89.2902 229.5C89.4546 229.326 89.661 229.21 89.9095 229.154L89.9256 229.043C89.672 228.915 89.4841 228.726 89.3619 228.477C89.2389 228.234 89.1988 227.963 89.2417 227.666C89.3133 227.17 89.5364 226.807 89.9111 226.578C90.2796 226.348 90.7682 226.273 91.3768 226.352L93.8734 226.676ZM92.7118 227.492L91.2306 227.299C90.945 227.262 90.7191 227.293 90.5531 227.391C90.3799 227.495 90.2768 227.661 90.2437 227.891C90.2106 228.12 90.2632 228.304 90.4015 228.442C90.5326 228.585 90.741 228.675 91.0267 228.712L92.5079 228.905L92.7118 227.492ZM92.3791 229.797L90.9538 229.612C90.6681 229.575 90.4423 229.606 90.2762 229.704C90.1031 229.808 90.0008 229.968 89.9695 230.185C89.9382 230.402 89.9917 230.579 90.13 230.717C90.2611 230.861 90.4695 230.951 90.7552 230.988L92.1805 231.173L92.3791 229.797Z" fill="#7FA0C6"/>
<path d="M87.6724 225.633C88.1844 225.722 88.6064 225.917 88.9384 226.217C89.2692 226.522 89.4981 226.912 89.625 227.385C89.7458 227.858 89.7495 228.392 89.6364 228.989C89.5232 229.586 89.3234 230.085 89.037 230.486C88.7444 230.887 88.3878 231.171 87.9671 231.339C87.5453 231.513 87.0784 231.555 86.5663 231.466C86.0481 231.376 85.6267 231.178 85.302 230.873C84.9701 230.574 84.7437 230.188 84.6229 229.715C84.496 229.242 84.4892 228.707 84.6023 228.11C84.7155 227.513 84.9184 227.015 85.211 226.614C85.4974 226.213 85.8515 225.925 86.2733 225.751C86.6878 225.582 87.1542 225.543 87.6724 225.633ZM87.4921 226.584C87.0171 226.501 86.6143 226.608 86.2837 226.907C85.9531 227.205 85.7288 227.665 85.611 228.286C85.4932 228.908 85.5342 229.414 85.7341 229.805C85.9341 230.195 86.2716 230.432 86.7466 230.515C87.2216 230.598 87.6244 230.491 87.955 230.193C88.2857 229.894 88.5099 229.434 88.6277 228.813C88.7456 228.192 88.7045 227.685 88.5046 227.294C88.3046 226.904 87.9671 226.667 87.4921 226.584Z" fill="#7FA0C6"/>
<path d="M83.9437 224.913C84.4457 225.022 84.8534 225.232 85.167 225.543C85.4806 225.854 85.6889 226.245 85.7919 226.716C85.8936 227.193 85.8766 227.724 85.7409 228.31C85.6024 228.907 85.3789 229.4 85.0704 229.789C84.7605 230.183 84.3883 230.458 83.9536 230.614C83.5129 230.769 83.0324 230.79 82.5121 230.677C82.0591 230.579 81.6831 230.399 81.3841 230.135C81.0838 229.878 80.8752 229.558 80.7585 229.174C80.6403 228.796 80.6258 228.373 80.7148 227.905L81.6422 228.106C81.6242 228.544 81.7139 228.906 81.9112 229.192C82.1023 229.477 82.3876 229.66 82.7671 229.742C83.2507 229.847 83.6644 229.754 84.0082 229.463C84.3519 229.172 84.5959 228.715 84.7401 228.093C84.88 227.489 84.861 226.989 84.683 226.591C84.5037 226.2 84.1845 225.955 83.7254 225.856C83.3826 225.782 83.0716 225.82 82.7923 225.971C82.5055 226.127 82.2738 226.378 82.0972 226.724L81.1699 226.524C81.2994 226.103 81.5019 225.756 81.7774 225.483C82.0515 225.215 82.3774 225.029 82.755 224.925C83.1251 224.826 83.5214 224.822 83.9437 224.913Z" fill="#7FA0C6"/>
<path d="M82.58 224.798L81.0887 230.234L76.8867 229.148L78.378 223.713L79.3785 223.971L78.1432 228.473L80.3443 229.042L81.5795 224.54L82.58 224.798Z" fill="#7FA0C6"/>
<path d="M76.4448 222.972C76.942 223.124 77.3367 223.369 77.6292 223.707C77.9197 224.051 78.0987 224.466 78.1661 224.951C78.2275 225.435 78.1651 225.966 77.9789 226.544C77.7928 227.122 77.5328 227.593 77.1988 227.956C76.859 228.317 76.4699 228.555 76.0316 228.67C75.5914 228.791 75.1227 228.775 74.6256 228.624C74.1224 228.47 73.7286 228.222 73.4441 227.88C73.1516 227.542 72.9747 227.131 72.9133 226.647C72.8459 226.162 72.9053 225.63 73.0914 225.052C73.2776 224.473 73.5406 224.004 73.8805 223.643C74.2144 223.28 74.6015 223.038 75.0417 222.917C75.474 222.8 75.9417 222.819 76.4448 222.972ZM76.1483 223.893C75.6871 223.752 75.274 223.81 74.909 224.065C74.544 224.32 74.2646 224.749 74.0707 225.351C73.8769 225.953 73.855 226.46 74.0051 226.873C74.1552 227.285 74.4609 227.562 74.9221 227.703C75.3832 227.843 75.7964 227.786 76.1614 227.531C76.5264 227.276 76.8058 226.847 76.9996 226.245C77.1935 225.643 77.2153 225.136 77.0652 224.723C76.9152 224.311 76.6095 224.034 76.1483 223.893Z" fill="#7FA0C6"/>
<path d="M75.3339 222.838L73.3938 228.13L71.8242 227.581L72.3851 223.568L72.2875 223.534L70.1305 226.989L68.6053 226.456L70.5454 221.164L71.4499 221.48L70.6092 223.773L69.733 226.054L69.8305 226.088L71.9189 222.738L73.2313 223.197L72.6859 227.086L72.7834 227.12L73.5887 224.815L74.4294 222.522L75.3339 222.838Z" fill="#7FA0C6"/>
<path d="M71.1216 221.38L68.9529 226.583L68.002 226.203L69.3032 223.081L69.9417 221.647L69.837 221.606L66.2746 225.513L64.6433 224.861L66.812 219.659L67.7629 220.039L66.4617 223.16L65.8231 224.594L65.9278 224.636L69.4902 220.729L71.1216 221.38Z" fill="#7FA0C6"/>
<path d="M67.6318 220.021L65.2572 225.132L64.3137 224.711L65.315 222.555L63.1364 221.582L62.1351 223.738L61.1917 223.316L63.5663 218.205L64.5098 218.626L63.548 220.696L65.7266 221.669L66.6883 219.599L67.6318 220.021Z" fill="#7FA0C6"/>
<path d="M58.9992 219.863L59.4187 219.054L61.0519 219.578C61.3074 219.656 61.5256 219.664 61.7066 219.601C61.8821 219.534 62.0217 219.401 62.1255 219.201C62.2235 219.012 62.2328 218.824 62.1534 218.637C62.0683 218.448 61.9138 218.297 61.6897 218.185C61.4433 218.061 61.189 218.008 60.9269 218.024C60.6591 218.037 60.4131 218.11 60.189 218.242C59.962 218.381 59.7865 218.57 59.6625 218.809L59.0267 220.035C58.8595 220.357 58.8263 220.659 58.9272 220.941C59.028 221.222 59.2493 221.448 59.5909 221.619C59.8317 221.74 60.0675 221.809 60.2983 221.826C60.5291 221.844 60.745 221.808 60.9461 221.72C61.1415 221.629 61.3179 221.486 61.4751 221.291L62.3572 221.733C62.1303 222.102 61.8495 222.378 61.5149 222.561C61.1747 222.741 60.8005 222.823 60.3922 222.808C59.9839 222.793 59.5614 222.676 59.1245 222.457C58.4973 222.143 58.095 221.743 57.9178 221.255C57.7349 220.764 57.7948 220.227 58.0976 219.643L59.8146 216.333L60.7135 216.782L60.4756 217.241L60.7277 217.367C60.9601 217.245 61.2115 217.189 61.4818 217.198C61.7465 217.205 62.0357 217.286 62.3493 217.443C62.6573 217.598 62.8959 217.79 63.0649 218.022C63.2255 218.257 63.314 218.514 63.3304 218.796C63.3411 219.074 63.2715 219.358 63.1216 219.647C62.9053 220.064 62.5936 220.339 62.1864 220.471C61.7763 220.609 61.3018 220.592 60.763 220.42L58.9992 219.863Z" fill="#7FA0C6"/>
<path d="M60.4899 216.688L57.6968 221.584L56.7922 221.084L57.9699 219.02L55.881 217.867L54.7033 219.931L53.7986 219.432L56.5917 214.536L57.4964 215.036L56.3652 217.018L58.4541 218.171L59.5853 216.189L60.4899 216.688Z" fill="#7FA0C6"/>
<path d="M57.3626 215.007L54.3756 219.787L53.5 219.256L55.2922 216.389L56.1557 215.078L56.0593 215.019L51.9094 218.292L50.4072 217.382L53.3942 212.602L54.2698 213.133L52.4776 216L51.6141 217.311L51.7105 217.37L55.8604 214.097L57.3626 215.007Z" fill="#7FA0C6"/>
<path d="M50.9035 210.935L49.7325 212.638L50.7632 213.327C51.1068 213.557 51.3627 213.815 51.531 214.101C51.6993 214.387 51.7766 214.683 51.7629 214.99C51.7404 215.299 51.6246 215.606 51.4152 215.91C51.2058 216.215 50.9616 216.432 50.6824 216.562C50.3945 216.693 50.0847 216.735 49.7533 216.686C49.4218 216.638 49.0842 216.499 48.7406 216.269L46.8509 215.005L50.0445 210.361L50.9035 210.935ZM53.7458 212.836L51.0799 213.878L50.1194 213.236L52.7541 212.173L53.7458 212.836ZM50.2363 214.094L49.2055 213.404L48.2581 214.782L49.2889 215.472C49.544 215.642 49.787 215.714 50.0179 215.688C50.2401 215.663 50.4257 215.542 50.5747 215.326C50.7237 215.109 50.7705 214.892 50.7151 214.674C50.651 214.458 50.4914 214.264 50.2363 214.094Z" fill="#7FA0C6"/>
<path d="M47.7557 208.512C48.4111 209.005 48.7346 209.621 48.7263 210.36C48.7141 211.103 48.3732 211.909 47.7035 212.776C46.854 213.877 46.0481 214.567 45.2858 214.848C44.5146 215.129 43.7529 215.014 43.0007 214.503L42.3699 214.075C42.2171 213.976 42.0966 213.932 42.0083 213.944C41.9112 213.957 41.8123 214.024 41.7116 214.144L40.8936 213.528C41.1409 213.228 41.3702 213.028 41.5815 212.929C41.784 212.83 41.9952 212.813 42.215 212.877C42.4299 212.937 42.6806 213.063 42.9673 213.255L43.6264 213.692C44.0269 213.963 44.4329 214.057 44.8444 213.974C45.2508 213.889 45.6653 213.628 46.0877 213.194L45.9901 213.12C45.6955 213.236 45.396 213.265 45.0917 213.208C44.7874 213.152 44.4926 213.016 44.2074 212.801C43.8272 212.515 43.5678 212.175 43.4292 211.78C43.2818 211.387 43.2568 210.968 43.3543 210.525C43.4518 210.081 43.6708 209.638 44.0114 209.197C44.3558 208.751 44.7432 208.423 45.1735 208.214C45.595 208.006 46.0291 207.925 46.4759 207.972C46.9138 208.019 47.3404 208.199 47.7557 208.512ZM47.1344 209.255C46.7642 208.977 46.3745 208.887 45.9654 208.987C45.5563 209.086 45.1776 209.362 44.8294 209.813C44.4812 210.264 44.3126 210.697 44.3237 211.113C44.3349 211.529 44.5256 211.877 44.8958 212.155C45.271 212.438 45.6632 212.529 46.0723 212.43C46.4764 212.326 46.8526 212.049 47.2008 211.598C47.5491 211.147 47.7201 210.715 47.714 210.303C47.7028 209.887 47.5096 209.538 47.1344 209.255Z" fill="#7FA0C6"/>
<path d="M46.3724 207.697L42.7346 212.002L41.9379 211.344L43.1384 209.923L42.6387 209.51C42.1655 209.119 41.9029 208.683 41.8507 208.202C41.7946 207.725 41.9565 207.261 42.3364 206.812C42.7164 206.362 43.1507 206.12 43.6393 206.085C44.1239 206.055 44.6028 206.235 45.076 206.626L46.3724 207.697ZM44.9452 207.785L44.3947 207.33C44.1823 207.155 43.9632 207.079 43.7374 207.104C43.5116 207.129 43.3057 207.251 43.1198 207.471C42.9339 207.691 42.8487 207.913 42.8643 208.137C42.8799 208.361 42.994 208.561 43.2064 208.737L43.7568 209.191L44.9452 207.785ZM42.925 204.849L39.2872 209.154L38.4905 208.496L42.1283 204.191L42.925 204.849Z" fill="#7FA0C6"/>
<path d="M43.5395 205.312L42.8982 206.011L42.7724 205.898C42.6513 205.789 42.5429 205.713 42.4472 205.669C42.3426 205.626 42.231 205.622 42.1125 205.659C41.985 205.696 41.8292 205.792 41.6451 205.946C41.4563 206.096 41.2194 206.313 40.9345 206.596L38.8124 208.743L35.9754 206.194L39.7852 202.04L40.5539 202.731L37.3981 206.171L38.7607 207.396L40.3913 205.729C40.7736 205.34 41.105 205.053 41.3857 204.867C41.6575 204.682 41.8976 204.578 42.1059 204.554C42.3142 204.531 42.5166 204.57 42.7131 204.671C42.9053 204.776 43.1109 204.927 43.3299 205.124L43.5395 205.312Z" fill="#7FA0C6"/>
<path d="M40.3737 202.612L36.3975 206.607L35.6651 205.891L38.0508 203.494L39.1844 202.409L39.1037 202.33L34.3346 204.592L33.0781 203.364L37.0543 199.369L37.7867 200.085L35.401 202.482L34.2674 203.567L34.348 203.646L39.1172 201.385L40.3737 202.612Z" fill="#7FA0C6"/>
<path d="M36.8207 199.159L33.7207 199.734L32.697 203.001L31.8865 202.113L32.6398 199.72L32.7855 199.475L32.7221 199.406L32.4625 199.525L29.9362 199.976L29.1764 199.143L32.5111 198.547L33.4394 195.454L34.2689 196.363L33.613 198.542L33.4673 198.787L33.5307 198.856L33.7903 198.737L36.0482 198.312L36.8207 199.159Z" fill="#7FA0C6"/>
<path d="M32.7254 194.346C33.0592 194.744 33.2571 195.166 33.319 195.61C33.376 196.059 33.3015 196.506 33.0955 196.953C32.8855 197.394 32.5463 197.808 32.078 198.195C31.6097 198.582 31.1378 198.838 30.6623 198.963C30.1828 199.083 29.7287 199.072 29.2999 198.931C28.8662 198.794 28.4825 198.526 28.1487 198.128C27.8109 197.724 27.6154 197.301 27.5624 196.857C27.5005 196.413 27.5746 195.97 27.7847 195.528C27.9907 195.082 28.3278 194.665 28.7961 194.278C29.2644 193.891 29.7383 193.638 30.2179 193.518C30.6933 193.393 31.1479 193.399 31.5815 193.537C32.0063 193.673 32.3876 193.943 32.7254 194.346ZM31.9795 194.962C31.6699 194.593 31.2934 194.416 30.8501 194.433C30.4068 194.45 29.9413 194.66 29.4537 195.063C28.9661 195.466 28.6736 195.882 28.5762 196.312C28.4788 196.742 28.5849 197.142 28.8946 197.511C29.2043 197.881 29.5808 198.057 30.0241 198.04C30.4674 198.023 30.9328 197.813 31.4204 197.411C31.908 197.008 32.2005 196.591 32.2979 196.162C32.3954 195.732 32.2892 195.332 31.9795 194.962Z" fill="#7FA0C6"/>
<path d="M33.0965 192.139L27.1102 196.682L26.4808 195.862L26.8924 195.55L26.7207 195.327C26.4798 195.352 26.2357 195.302 25.9884 195.175C25.741 195.048 25.5258 194.865 25.3427 194.627C25.0566 194.255 24.906 193.858 24.8908 193.437C24.8706 193.02 24.9803 192.602 25.2201 192.185C25.4599 191.767 25.8217 191.374 26.3056 191.007C26.7895 190.64 27.2658 190.396 27.7344 190.277C28.203 190.157 28.6395 190.16 29.0438 190.285C29.4432 190.414 29.7859 190.665 30.0719 191.038C30.255 191.276 30.3754 191.531 30.4332 191.802C30.486 192.076 30.4707 192.323 30.3874 192.544L30.559 192.767L32.4672 191.319L33.0965 192.139ZM29.4328 191.794C29.1467 191.422 28.7858 191.24 28.3501 191.248C27.9105 191.251 27.4388 191.444 26.9349 191.827C26.4311 192.209 26.1196 192.611 26.0004 193.031C25.8774 193.447 25.959 193.841 26.245 194.213C26.5349 194.591 26.8996 194.778 27.3392 194.775C27.7749 194.766 28.2447 194.571 28.7486 194.189C29.2524 193.806 29.5659 193.407 29.6888 192.991C29.808 192.571 29.7226 192.172 29.4328 191.794Z" fill="#7FA0C6"/>
<path d="M27.9782 188.22C28.2769 188.645 28.4383 189.082 28.4624 189.531C28.4814 189.983 28.3696 190.423 28.1269 190.851C27.8806 191.274 27.5081 191.659 27.0094 192.006C26.5107 192.353 26.0194 192.569 25.5356 192.653C25.0482 192.733 24.5971 192.685 24.1822 192.508C23.7621 192.335 23.4028 192.035 23.1041 191.61C22.8018 191.179 22.643 190.741 22.6276 190.294C22.6034 189.845 22.7145 189.409 22.9608 188.986C23.2035 188.558 23.5742 188.171 24.0729 187.824C24.5716 187.477 25.0647 187.264 25.5521 187.184C26.0359 187.099 26.4878 187.144 26.9078 187.317C27.3191 187.488 27.6759 187.79 27.9782 188.22ZM27.1838 188.773C26.9067 188.378 26.5469 188.17 26.1042 188.15C25.6616 188.13 25.1806 188.301 24.6613 188.662C24.142 189.023 23.8158 189.414 23.6826 189.834C23.5494 190.255 23.6214 190.663 23.8985 191.057C24.1755 191.452 24.5354 191.659 24.9781 191.68C25.4207 191.7 25.9017 191.529 26.421 191.168C26.9403 190.807 27.2665 190.416 27.3997 189.995C27.5329 189.575 27.4609 189.167 27.1838 188.773Z" fill="#7FA0C6"/>
<path d="M27.1084 187.334L22.3512 190.357L21.8347 189.55L25.7753 187.046L25.0765 185.954L21.1359 188.458L20.6195 187.651L24.5601 185.147L23.8613 184.055L19.9207 186.559L19.4042 185.752L24.1615 182.729L27.1084 187.334Z" fill="#7FA0C6"/>
<path d="M24.6978 183.608L19.8187 186.43L19.3043 185.545L22.2318 183.852L23.6087 183.099L23.5521 183.001L18.37 183.936L17.4876 182.417L22.3668 179.596L22.8811 180.481L19.9536 182.174L18.5767 182.927L18.6333 183.024L23.8154 182.089L24.6978 183.608Z" fill="#7FA0C6"/>
<path d="M22.7247 180.267L17.7319 182.883L16.9594 181.41L20.0821 178.81L20.0341 178.718L16.1257 179.822L15.375 178.391L20.3678 175.776L20.813 176.624L18.6495 177.757L16.4685 178.857L16.5165 178.949L20.3036 177.877L20.9496 179.108L17.9219 181.627L17.9699 181.719L20.116 180.552L22.2796 179.419L22.7247 180.267Z" fill="#7FA0C6"/>
<path d="M20.8523 176.735L15.7545 179.139L15.3183 178.213L18.3769 176.77L19.8118 176.135L19.7638 176.033L14.5258 176.53L13.7774 174.941L18.8752 172.536L19.3115 173.463L16.2528 174.905L14.8179 175.541L14.8659 175.643L20.1039 175.146L20.8523 176.735Z" fill="#7FA0C6"/>
<path d="M11.4614 174.298L11.0473 173.31L15.9814 171.23L16.3955 172.218L11.4614 174.298ZM18.2314 170.863C18.3306 171.1 18.3504 171.309 18.2907 171.491C18.2228 171.669 18.0821 171.803 17.8686 171.893C17.6493 171.985 17.4524 171.993 17.2779 171.917C17.101 171.836 16.9629 171.676 16.8637 171.44C16.7644 171.203 16.7487 170.995 16.8166 170.817C16.8821 170.633 17.0245 170.495 17.2438 170.403C17.4573 170.313 17.6525 170.309 17.8294 170.39C17.9981 170.469 18.1321 170.626 18.2314 170.863Z" fill="#7FA0C6"/>
</svg>
